# xmcd CD database file
#
# Track frame offsets:
#	150
#	5195
#	28555
#	53327
#	74702
#	96730
#	117965
#	142902
#	174627
#	196172
#	222202
#
# Disc length: 3346 seconds
#
# Revision: 0
# Processed by: cddbd v1.5.1PL2 Copyright (c) Steve Scherf et al.
# Submitted via: CDex 1.51
#
DISCID=9f0d100b
DTITLE=花田 裕之 - ROCK'N' ROLL GYPSIES - 風が吹いてきた
DYEAR=1996
DGENRE=Rock
TTITLE0=ハイウェイ
TTITLE1=OOH LA LA
TTITLE2=FREE BIRD
TTITLE3=街の生活はせちがらいなあと思っている男の唄
TTITLE4=二人でいよう
TTITLE5=HONEY MAKER
TTITLE6=かなわぬ恋
TTITLE7=エレクトリック・マッド
TTITLE8=洪水の前に
TTITLE9=ハイウェイ
TTITLE10=風が吹いてきた
EXTD=YEAR: 1996
EXTT0=
EXTT1=
EXTT2=
EXTT3=
EXTT4=
EXTT5=
EXTT6=
EXTT7=
EXTT8=
EXTT9=
EXTT10=
PLAYORDER=
